<?xml version="1.0" encoding="utf-8"?>
<svg viewBox="0 0 350 350" xmlns="http://www.w3.org/2000/svg">
  <rect width="350" height="350" style="fill: rgb(57, 147, 95);"/>
  <g transform="matrix(1, 0, 0, 1, -110.315491, 20.315414)">
    <g transform="matrix(1, 0, 0, 1, 34.709991, -98.662003)">
      <rect style="stroke: rgb(0, 0, 0);" x="105.921" y="168.662" width="49.369" height="49.369" rx="10" ry="10"/>
      <path d="M 139.45000061035157 194.99400390625 Q 140.61000061035156 194.99400390625 141.03000061035158 195.67400390625 Q 141.45000061035157 196.35400390625 141.45000061035157 197.67400390625 L 141.45000061035157 205.35400390625 L 122.57000061035156 205.35400390625 Q 119.93000061035156 205.35400390625 119.93000061035156 203.35400390625 Q 119.93000061035156 202.19400390625 120.61000061035156 201.77400390625 Q 121.29000061035157 201.35400390625 122.57000061035156 201.35400390625 L 124.85000061035156 201.35400390625 L 124.85000061035156 186.03400390625 L 122.57000061035156 186.03400390625 Q 119.93000061035156 186.03400390625 119.93000061035156 184.03400390625 Q 119.93000061035156 182.87400390625 120.61000061035156 182.45400390625 Q 121.29000061035157 182.03400390625 122.57000061035156 182.03400390625 L 131.13000061035157 182.03400390625 Q 133.77000061035156 182.03400390625 133.77000061035156 184.03400390625 Q 133.77000061035156 186.03400390625 131.13000061035157 186.03400390625 L 128.85000061035157 186.03400390625 L 128.85000061035157 201.35400390625 L 137.45000061035157 201.35400390625 L 137.45000061035157 197.67400390625 Q 137.45000061035157 194.99400390625 139.45000061035157 194.99400390625 Z" transform="matrix(1, 0, 0, 1, 0, 0)" style="fill: rgb(255, 255, 255); white-space: pre;"/>
    </g>
    <g transform="matrix(1, 0, 0, 1, 94.709991, -98.662003)">
      <rect style="stroke: rgb(0, 0, 0);" x="105.921" y="168.662" width="49.369" height="49.369" rx="10" ry="10"/>
      <path d="M 136.65000061035155 201.35400390625 Q 137.93000061035156 201.35400390625 138.61000061035156 201.77400390625 Q 139.29000061035157 202.19400390625 139.29000061035157 203.35400390625 Q 139.29000061035157 205.35400390625 136.65000061035155 205.35400390625 L 124.57000061035156 205.35400390625 Q 121.93000061035156 205.35400390625 121.93000061035156 203.35400390625 Q 121.93000061035156 202.19400390625 122.61000061035156 201.77400390625 Q 123.29000061035157 201.35400390625 124.57000061035156 201.35400390625 L 128.61000061035156 201.35400390625 L 128.61000061035156 186.03400390625 L 124.57000061035156 186.03400390625 Q 121.93000061035156 186.03400390625 121.93000061035156 184.03400390625 Q 121.93000061035156 182.87400390625 122.61000061035156 182.45400390625 Q 123.29000061035157 182.03400390625 124.57000061035156 182.03400390625 L 136.65000061035155 182.03400390625 Q 137.93000061035156 182.03400390625 138.61000061035156 182.45400390625 Q 139.29000061035157 182.87400390625 139.29000061035157 184.03400390625 Q 139.29000061035157 186.03400390625 136.65000061035155 186.03400390625 L 132.61000061035156 186.03400390625 L 132.61000061035156 201.35400390625 Z" transform="matrix(1, 0, 0, 1, 0, 0)" style="fill: rgb(255, 255, 255); white-space: pre;"/>
    </g>
    <g transform="matrix(1, 0, 0, 1, 154.709991, -98.662003)">
      <rect style="stroke: rgb(0, 0, 0);" x="105.921" y="168.662" width="49.369" height="49.369" rx="10" ry="10"/>
      <path d="M 137.33000061035156 181.47400390625 Q 138.53000061035158 181.47400390625 138.91000061035157 182.15400390625 Q 139.29000061035157 182.83400390625 139.29000061035157 184.11400390625 L 139.29000061035157 187.63400390625 Q 139.29000061035157 190.31400390625 137.33000061035156 190.31400390625 Q 137.01000061035157 190.31400390625 136.75000061035155 190.25400390625 Q 136.49000061035156 190.19400390625 136.31000061035155 190.09400390625 Q 136.13000061035157 189.99400390625 135.97000061035158 189.81400390625 Q 135.81000061035155 189.63400390625 135.73000061035157 189.51400390625 Q 135.65000061035155 189.39400390625 135.57000061035157 189.15400390625 Q 135.49000061035156 188.91400390625 135.47000061035158 188.81400390625 Q 135.45000061035157 188.71400390625 135.39000061035156 188.45400390625 Q 135.33000061035156 188.19400390625 135.33000061035156 188.15400390625 Q 135.05000061035156 186.95400390625 133.75000061035155 186.21400390625 Q 132.45000061035157 185.47400390625 130.57000061035157 185.47400390625 Q 128.69000061035158 185.47400390625 127.37000061035157 186.35400390625 Q 126.05000061035156 187.23400390625 126.05000061035156 188.51400390625 Q 126.05000061035156 189.87400390625 127.37000061035157 190.61400390625 Q 128.69000061035158 191.35400390625 130.45000061035157 191.57400390625 Q 132.21000061035156 191.79400390625 134.37000061035155 192.37400390625 Q 136.53000061035158 192.95400390625 137.77000061035156 193.95400390625 Q 140.13000061035157 195.83400390625 140.13000061035157 198.95400390625 Q 140.13000061035157 202.07400390625 137.61000061035156 203.99400390625 Q 135.09000061035155 205.91400390625 130.97000061035158 205.91400390625 Q 127.65000061035157 205.91400390625 124.73000061035157 204.35400390625 Q 123.93000061035156 205.31400390625 123.13000061035156 205.31400390625 Q 121.09000061035157 205.31400390625 121.09000061035157 202.67400390625 L 121.09000061035157 200.03400390625 Q 121.09000061035157 198.71400390625 121.53000061035156 198.05400390625 Q 121.97000061035156 197.39400390625 123.09000061035157 197.39400390625 Q 123.45000061035157 197.39400390625 123.75000061035156 197.47400390625 Q 124.05000061035156 197.55400390625 124.25000061035156 197.71400390625 Q 124.45000061035157 197.87400390625 124.59000061035157 198.01400390625 Q 124.73000061035157 198.15400390625 124.83000061035156 198.39400390625 Q 124.93000061035156 198.63400390625 124.97000061035156 198.75400390625 Q 125.01000061035157 198.87400390625 125.07000061035156 199.07400390625 Q 125.13000061035156 199.27400390625 125.13000061035156 199.31400390625 Q 125.41000061035156 200.39400390625 127.05000061035156 201.15400390625 Q 128.69000061035158 201.91400390625 130.69000061035158 201.91400390625 Q 132.93000061035156 201.91400390625 134.45000061035157 201.03400390625 Q 135.97000061035158 200.15400390625 135.97000061035158 198.87400390625 Q 135.97000061035158 197.67400390625 134.79000061035157 196.95400390625 Q 133.61000061035156 196.23400390625 132.07000061035157 195.99400390625 Q 130.53000061035155 195.75400390625 128.47000061035158 195.27400390625 Q 126.41000061035156 194.79400390625 125.17000061035156 194.11400390625 Q 123.65000061035157 193.23400390625 122.77000061035156 191.75400390625 Q 121.89000061035156 190.27400390625 121.89000061035156 188.55400390625 Q 121.89000061035156 185.51400390625 124.37000061035157 183.49400390625 Q 126.85000061035156 181.47400390625 130.57000061035157 181.47400390625 Q 133.65000061035155 181.47400390625 135.77000061035156 182.79400390625 Q 136.09000061035155 182.03400390625 136.41000061035157 181.75400390625 Q 136.73000061035157 181.47400390625 137.33000061035156 181.47400390625 Z" transform="matrix(1, 0, 0, 1, 0, 0)" style="fill: rgb(255, 255, 255); white-space: pre;"/>
    </g>
    <g transform="matrix(1, 0, 0, 1, 214.709991, -98.662003)">
      <rect style="stroke: rgb(0, 0, 0);" x="105.921" y="168.662" width="49.369" height="49.369" rx="10" ry="10"/>
      <path d="M 135.21000061035156 201.35400390625 Q 137.85000061035157 201.35400390625 137.85000061035157 203.35400390625 Q 137.85000061035157 205.35400390625 135.21000061035156 205.35400390625 L 125.97000061035156 205.35400390625 Q 123.33000061035156 205.35400390625 123.33000061035156 203.35400390625 Q 123.33000061035156 202.19400390625 124.01000061035157 201.77400390625 Q 124.69000061035156 201.35400390625 125.97000061035156 201.35400390625 L 128.57000061035157 201.35400390625 L 128.57000061035157 186.03400390625 L 124.29000061035157 186.03400390625 L 124.29000061035157 189.75400390625 Q 124.29000061035157 192.39400390625 122.29000061035157 192.39400390625 Q 120.29000061035157 192.39400390625 120.29000061035157 189.75400390625 L 120.29000061035157 182.03400390625 L 140.93000061035156 182.03400390625 L 140.93000061035156 189.75400390625 Q 140.93000061035156 191.03400390625 140.51000061035157 191.71400390625 Q 140.09000061035155 192.39400390625 138.93000061035156 192.39400390625 Q 136.93000061035156 192.39400390625 136.93000061035156 189.75400390625 L 136.93000061035156 186.03400390625 L 132.57000061035157 186.03400390625 L 132.57000061035157 201.35400390625 L 135.21000061035156 201.35400390625 Z" transform="matrix(1, 0, 0, 1, 0, 0)" style="fill: rgb(255, 255, 255); white-space: pre;"/>
    </g>
    <g transform="matrix(1, 0, 0, 1, 274.709991, -98.662003)">
      <rect style="stroke: rgb(0, 0, 0);" x="105.921" y="168.662" width="49.369" height="49.369" rx="10" ry="10"/>
      <path d="M 140.93000061035156 194.19400390625 Q 140.93000061035156 196.19400390625 138.29000061035157 196.19400390625 L 122.93000061035156 196.19400390625 Q 120.29000061035157 196.19400390625 120.29000061035157 194.19400390625 Q 120.29000061035157 192.19400390625 122.93000061035156 192.19400390625 L 138.29000061035157 192.19400390625 Q 139.61000061035156 192.19400390625 140.27000061035156 192.61400390625 Q 140.93000061035156 193.03400390625 140.93000061035156 194.19400390625 Z" transform="matrix(1, 0, 0, 1, 0, 0)" style="fill: rgb(255, 255, 255); white-space: pre;"/>
    </g>
    <g transform="matrix(1, 0, 0, 1, 34.710007, -38.661919)">
      <rect style="stroke: rgb(0, 0, 0);" x="105.921" y="168.662" width="49.369" height="49.369" rx="10" ry="10"/>
      <path d="M 140.33000061035156 201.35400390625 Q 142.97000061035158 201.35400390625 142.97000061035158 203.35400390625 Q 142.97000061035158 205.35400390625 140.33000061035156 205.35400390625 L 137.17000061035156 205.35400390625 Q 135.69000061035158 202.47400390625 133.39000061035156 199.69400390625 Q 131.09000061035155 196.91400390625 129.81000061035155 196.47400390625 L 125.97000061035156 196.47400390625 L 125.97000061035156 201.35400390625 L 127.37000061035157 201.35400390625 Q 130.01000061035157 201.35400390625 130.01000061035157 203.35400390625 Q 130.01000061035157 205.35400390625 127.37000061035157 205.35400390625 L 121.37000061035157 205.35400390625 Q 118.73000061035157 205.35400390625 118.73000061035157 203.35400390625 Q 118.73000061035157 201.35400390625 121.37000061035157 201.35400390625 L 121.97000061035156 201.35400390625 L 121.97000061035156 186.03400390625 L 121.37000061035157 186.03400390625 Q 118.73000061035157 186.03400390625 118.73000061035157 184.03400390625 Q 118.73000061035157 182.87400390625 119.41000061035156 182.45400390625 Q 120.09000061035157 182.03400390625 121.37000061035157 182.03400390625 L 130.29000061035157 182.03400390625 Q 134.17000061035156 182.03400390625 136.63000061035157 184.01400390625 Q 139.09000061035155 185.99400390625 139.09000061035155 189.15400390625 Q 139.09000061035155 192.83400390625 134.77000061035156 195.19400390625 Q 137.37000061035155 197.47400390625 139.81000061035155 201.35400390625 L 140.33000061035156 201.35400390625 Z M 125.97000061035156 192.47400390625 L 129.01000061035157 192.47400390625 Q 131.53000061035155 192.47400390625 133.19000061035158 191.49400390625 Q 134.85000061035157 190.51400390625 134.85000061035157 189.03400390625 Q 134.85000061035157 187.75400390625 133.61000061035156 186.89400390625 Q 132.37000061035155 186.03400390625 130.45000061035157 186.03400390625 L 125.97000061035156 186.03400390625 Z" transform="matrix(1, 0, 0, 1, 0, 0)" style="fill: rgb(255, 255, 255); white-space: pre;"/>
    </g>
    <g transform="matrix(1, 0, 0, 1, 94.710007, -38.661919)">
      <rect style="stroke: rgb(0, 0, 0);" x="105.921" y="168.662" width="49.369" height="49.369" rx="10" ry="10"/>
      <path d="M 132.61000061035156 203.35400390625 Q 132.61000061035156 202.19400390625 133.29000061035157 201.77400390625 Q 133.97000061035158 201.35400390625 135.25000061035155 201.35400390625 L 136.17000061035156 201.35400390625 L 135.25000061035155 199.03400390625 L 125.73000061035157 199.03400390625 L 124.81000061035157 201.35400390625 L 125.73000061035157 201.35400390625 Q 128.37000061035155 201.35400390625 128.37000061035155 203.35400390625 Q 128.37000061035155 205.35400390625 125.73000061035157 205.35400390625 L 120.41000061035156 205.35400390625 Q 117.77000061035156 205.35400390625 117.77000061035156 203.35400390625 Q 117.77000061035156 202.15400390625 118.47000061035156 201.75400390625 Q 119.17000061035156 201.35400390625 120.45000061035157 201.35400390625 L 126.65000061035157 186.03400390625 L 124.13000061035156 186.03400390625 Q 121.45000061035157 186.03400390625 121.45000061035157 184.03400390625 Q 121.45000061035157 182.83400390625 122.15000061035157 182.43400390624998 Q 122.85000061035156 182.03400390625 124.13000061035156 182.03400390625 L 132.77000061035156 182.03400390625 L 140.73000061035157 201.35400390625 Q 143.45000061035157 201.35400390625 143.45000061035157 203.35400390625 Q 143.45000061035157 205.35400390625 140.81000061035155 205.35400390625 L 135.25000061035155 205.35400390625 Q 132.61000061035156 205.35400390625 132.61000061035156 203.35400390625 Z M 133.61000061035156 195.03400390625 L 130.49000061035156 187.35400390625 L 127.33000061035156 195.03400390625 Z" transform="matrix(1, 0, 0, 1, 0, 0)" style="fill: rgb(255, 255, 255); white-space: pre;"/>
    </g>
    <g transform="matrix(1, 0, 0, 1, 154.710007, -38.661919)">
      <rect style="stroke: rgb(0, 0, 0);" x="105.921" y="168.662" width="49.369" height="49.369" rx="10" ry="10"/>
      <path d="M 139.65000061035155 182.03400390625 Q 142.29000061035157 182.03400390625 142.29000061035157 184.03400390625 Q 142.29000061035157 186.03400390625 139.85000061035157 186.03400390625 L 139.85000061035157 205.35400390625 L 135.89000061035156 205.35400390625 L 125.53000061035156 189.59400390625 L 125.53000061035156 201.35400390625 L 126.93000061035156 201.35400390625 Q 128.21000061035156 201.35400390625 128.89000061035156 201.77400390625 Q 129.57000061035157 202.19400390625 129.57000061035157 203.35400390625 Q 129.57000061035157 205.35400390625 126.93000061035156 205.35400390625 L 121.77000061035156 205.35400390625 Q 119.09000061035157 205.35400390625 119.09000061035157 203.35400390625 Q 119.09000061035157 201.35400390625 121.53000061035156 201.35400390625 L 121.53000061035156 186.03400390625 L 120.93000061035156 186.03400390625 Q 118.29000061035157 186.03400390625 118.29000061035157 184.03400390625 Q 118.29000061035157 182.87400390625 118.97000061035156 182.45400390625 Q 119.65000061035157 182.03400390625 120.93000061035156 182.03400390625 L 125.53000061035156 182.03400390625 L 135.85000061035157 197.71400390625 L 135.85000061035157 186.03400390625 L 134.45000061035157 186.03400390625 Q 131.81000061035155 186.03400390625 131.81000061035155 184.03400390625 Q 131.81000061035155 182.87400390625 132.49000061035156 182.45400390625 Q 133.17000061035156 182.03400390625 134.45000061035157 182.03400390625 Z" transform="matrix(1, 0, 0, 1, 0, 0)" style="fill: rgb(255, 255, 255); white-space: pre;"/>
    </g>
    <g transform="matrix(1, 0, 0, 1, 214.710007, -38.661919)">
      <rect style="stroke: rgb(0, 0, 0);" x="105.921" y="168.662" width="49.369" height="49.369" rx="10" ry="10"/>
      <path d="M 121.81000061035157 205.35400390625 Q 119.13000061035156 205.35400390625 119.13000061035156 203.35400390625 Q 119.13000061035156 202.39400390625 119.77000061035156 201.87400390625 Q 120.41000061035156 201.35400390625 121.57000061035156 201.35400390625 L 121.57000061035156 186.03400390625 Q 119.13000061035156 186.03400390625 119.13000061035156 184.03400390625 Q 119.13000061035156 182.83400390625 119.83000061035156 182.43400390624998 Q 120.53000061035156 182.03400390625 121.81000061035157 182.03400390625 L 130.29000061035157 182.03400390625 Q 134.65000061035155 182.03400390625 137.63000061035157 185.23400390625 Q 140.61000061035156 188.43400390624998 140.61000061035156 193.15400390625 L 140.61000061035156 195.03400390625 Q 140.61000061035156 199.71400390625 137.71000061035156 202.53400390625 Q 134.81000061035155 205.35400390625 129.97000061035158 205.35400390625 Z M 136.61000061035156 193.07400390625 Q 136.61000061035156 190.07400390625 134.79000061035157 188.05400390625 Q 132.97000061035158 186.03400390625 129.97000061035158 186.03400390625 L 125.57000061035156 186.03400390625 L 125.57000061035156 201.35400390625 L 130.01000061035157 201.35400390625 Q 132.01000061035157 201.35400390625 133.39000061035156 200.75400390625 Q 134.77000061035156 200.15400390625 135.43000061035156 199.11400390625 Q 136.09000061035155 198.07400390625 136.35000061035157 197.07400390625 Q 136.61000061035156 196.07400390625 136.61000061035156 194.91400390625 Z" transform="matrix(1, 0, 0, 1, 0, 0)" style="fill: rgb(255, 255, 255); white-space: pre;"/>
    </g>
    <g transform="matrix(1, 0, 0, 1, 274.709991, -38.661919)">
      <rect style="stroke: rgb(0, 0, 0);" x="105.921" y="168.662" width="49.369" height="49.369" rx="10" ry="10"/>
      <path d="M 130.61000061035156 181.47400390625 Q 131.49000061035156 181.47400390625 132.69000061035158 181.73400390625 Q 133.89000061035156 181.99400390625 135.55000061035156 182.83400390625 Q 137.21000061035156 183.67400390625 138.55000061035156 184.95400390625 Q 139.89000061035156 186.23400390625 140.83000061035156 188.57400390625 Q 141.77000061035156 190.91400390625 141.77000061035156 193.87400390625 Q 141.77000061035156 198.79400390625 138.47000061035158 202.35400390625 Q 135.17000061035156 205.91400390625 130.61000061035156 205.91400390625 Q 125.97000061035156 205.91400390625 122.71000061035156 202.33400390625 Q 119.45000061035157 198.75400390625 119.45000061035157 193.67400390625 Q 119.45000061035157 188.63400390625 122.73000061035157 185.05400390625 Q 126.01000061035157 181.47400390625 130.61000061035156 181.47400390625 Z M 130.61000061035156 185.47400390625 Q 127.69000061035156 185.47400390625 125.57000061035156 187.89400390625 Q 123.45000061035157 190.31400390625 123.45000061035157 193.67400390625 Q 123.45000061035157 197.07400390625 125.55000061035156 199.49400390625 Q 127.65000061035157 201.91400390625 130.61000061035156 201.91400390625 Q 133.53000061035155 201.91400390625 135.65000061035155 199.51400390625 Q 137.77000061035156 197.11400390625 137.77000061035156 193.79400390625 Q 137.77000061035156 190.35400390625 135.67000061035156 187.91400390625 Q 133.57000061035157 185.47400390625 130.61000061035156 185.47400390625 Z" transform="matrix(1, 0, 0, 1, 0, 0)" style="fill: rgb(255, 255, 255); white-space: pre;"/>
    </g>
    <g transform="matrix(1, 0, 0, 1, 34.709999, 21.338169)">
      <rect style="stroke: rgb(0, 0, 0);" x="105.921" y="168.662" width="49.369" height="49.369" rx="10" ry="10"/>
      <path d="M 133.05000061035156 203.35400390625 Q 133.05000061035156 202.19400390625 133.73000061035157 201.77400390625 Q 134.41000061035157 201.35400390625 135.69000061035158 201.35400390625 L 137.09000061035155 201.35400390625 L 137.09000061035155 189.79400390625 L 132.65000061035155 199.87400390625 L 129.01000061035157 199.87400390625 L 124.29000061035157 189.83400390625 L 124.29000061035157 201.35400390625 L 125.69000061035156 201.35400390625 Q 127.01000061035157 201.35400390625 127.67000061035156 201.77400390625 Q 128.33000061035156 202.19400390625 128.33000061035156 203.35400390625 Q 128.33000061035156 205.35400390625 125.69000061035156 205.35400390625 L 120.53000061035156 205.35400390625 Q 117.85000061035156 205.35400390625 117.85000061035156 203.35400390625 Q 117.85000061035156 201.35400390625 120.29000061035157 201.35400390625 L 120.29000061035157 186.07400390625 Q 118.21000061035156 185.87400390625 118.21000061035156 184.03400390625 Q 118.21000061035156 183.23400390625 118.77000061035156 182.63400390625 Q 119.33000061035156 182.03400390625 120.69000061035156 182.03400390625 L 125.21000061035156 182.03400390625 L 130.73000061035157 193.95400390625 L 136.13000061035157 182.03400390625 L 140.53000061035158 182.03400390625 Q 143.17000061035156 182.03400390625 143.17000061035156 184.03400390625 Q 143.17000061035156 185.83400390625 141.09000061035155 186.03400390625 L 141.09000061035155 201.35400390625 Q 143.53000061035158 201.35400390625 143.53000061035158 203.35400390625 Q 143.53000061035158 205.35400390625 140.89000061035156 205.35400390625 L 135.69000061035158 205.35400390625 Q 133.05000061035156 205.35400390625 133.05000061035156 203.35400390625 Z" transform="matrix(1, 0, 0, 1, 0, 0)" style="fill: rgb(255, 255, 255); white-space: pre;"/>
    </g>
    <g transform="matrix(1, 0, 0, 1, 94.710014, 21.338169)">
      <rect style="stroke: rgb(0, 0, 0);" x="105.921" y="168.662" width="49.369" height="49.369" rx="10" ry="10"/>
      <path d="M 136.65000061035155 201.35400390625 Q 137.93000061035156 201.35400390625 138.61000061035156 201.77400390625 Q 139.29000061035157 202.19400390625 139.29000061035157 203.35400390625 Q 139.29000061035157 205.35400390625 136.65000061035155 205.35400390625 L 124.57000061035156 205.35400390625 Q 121.93000061035156 205.35400390625 121.93000061035156 203.35400390625 Q 121.93000061035156 202.19400390625 122.61000061035156 201.77400390625 Q 123.29000061035157 201.35400390625 124.57000061035156 201.35400390625 L 128.61000061035156 201.35400390625 L 128.61000061035156 186.03400390625 L 124.57000061035156 186.03400390625 Q 121.93000061035156 186.03400390625 121.93000061035156 184.03400390625 Q 121.93000061035156 182.87400390625 122.61000061035156 182.45400390625 Q 123.29000061035157 182.03400390625 124.57000061035156 182.03400390625 L 136.65000061035155 182.03400390625 Q 137.93000061035156 182.03400390625 138.61000061035156 182.45400390625 Q 139.29000061035157 182.87400390625 139.29000061035157 184.03400390625 Q 139.29000061035157 186.03400390625 136.65000061035155 186.03400390625 L 132.61000061035156 186.03400390625 L 132.61000061035156 201.35400390625 Z" transform="matrix(1, 0, 0, 1, 0, 0)" style="fill: rgb(255, 255, 255); white-space: pre;"/>
    </g>
    <g transform="matrix(1, 0, 0, 1, 154.710022, 21.338169)">
      <rect style="stroke: rgb(0, 0, 0);" x="105.921" y="168.662" width="49.369" height="49.369" rx="10" ry="10"/>
      <path d="M 126.45000061035157 188.83400390625 Q 126.45000061035157 191.47400390625 124.45000061035157 191.47400390625 Q 122.45000061035157 191.47400390625 122.45000061035157 188.83400390625 L 122.45000061035157 182.03400390625 L 138.77000061035156 182.03400390625 L 138.77000061035156 185.91400390625 L 126.65000061035157 201.35400390625 L 135.69000061035158 201.35400390625 L 135.69000061035158 198.47400390625 Q 135.69000061035158 197.19400390625 136.11000061035156 196.51400390625 Q 136.53000061035158 195.83400390625 137.69000061035158 195.83400390625 Q 138.85000061035157 195.83400390625 139.27000061035156 196.51400390625 Q 139.69000061035158 197.19400390625 139.69000061035158 198.47400390625 L 139.69000061035158 205.35400390625 L 121.53000061035156 205.35400390625 L 121.53000061035156 201.35400390625 L 133.61000061035156 186.03400390625 L 126.45000061035157 186.03400390625 L 126.45000061035157 188.83400390625 Z" transform="matrix(1, 0, 0, 1, 0, 0)" style="fill: rgb(255, 255, 255); white-space: pre;"/>
    </g>
    <g transform="matrix(1, 0, 0, 1, 214.710007, 21.338169)">
      <rect style="stroke: rgb(0, 0, 0);" x="105.921" y="168.662" width="49.369" height="49.369" rx="10" ry="10"/>
      <path d="M 136.61000061035156 199.27400390625 Q 136.61000061035156 196.59400390625 138.61000061035156 196.59400390625 Q 140.61000061035156 196.59400390625 140.61000061035156 199.27400390625 L 140.61000061035156 205.35400390625 L 121.77000061035156 205.35400390625 Q 119.13000061035156 205.35400390625 119.13000061035156 203.35400390625 Q 119.13000061035156 201.35400390625 121.77000061035156 201.35400390625 L 122.37000061035157 201.35400390625 L 122.37000061035157 186.03400390625 L 121.77000061035156 186.03400390625 Q 119.13000061035156 186.03400390625 119.13000061035156 184.03400390625 Q 119.13000061035156 182.87400390625 119.81000061035157 182.45400390625 Q 120.49000061035156 182.03400390625 121.77000061035156 182.03400390625 L 139.73000061035157 182.03400390625 L 139.73000061035157 188.03400390625 Q 139.73000061035157 190.71400390625 137.73000061035157 190.71400390625 Q 135.73000061035157 190.71400390625 135.73000061035157 188.03400390625 L 135.73000061035157 186.03400390625 L 126.37000061035157 186.03400390625 L 126.37000061035157 191.67400390625 L 129.77000061035156 191.67400390625 L 129.77000061035156 191.39400390625 Q 129.77000061035156 188.71400390625 131.73000061035157 188.71400390625 Q 133.73000061035157 188.71400390625 133.73000061035157 191.39400390625 L 133.73000061035157 195.91400390625 Q 133.73000061035157 198.55400390625 131.77000061035156 198.55400390625 Q 129.77000061035156 198.55400390625 129.77000061035156 195.91400390625 L 129.77000061035156 195.63400390625 L 126.37000061035157 195.63400390625 L 126.37000061035157 201.35400390625 L 136.61000061035156 201.35400390625 L 136.61000061035156 199.27400390625 Z" transform="matrix(1, 0, 0, 1, 0, 0)" style="fill: rgb(255, 255, 255); white-space: pre;"/>
    </g>
    <g transform="matrix(1, 0, 0, 1, 274.710022, 21.338169)">
      <rect style="stroke: rgb(0, 0, 0);" x="105.921" y="168.662" width="49.369" height="49.369" rx="10" ry="10"/>
      <path d="M 140.33000061035156 201.35400390625 Q 142.97000061035158 201.35400390625 142.97000061035158 203.35400390625 Q 142.97000061035158 205.35400390625 140.33000061035156 205.35400390625 L 137.17000061035156 205.35400390625 Q 135.69000061035158 202.47400390625 133.39000061035156 199.69400390625 Q 131.09000061035155 196.91400390625 129.81000061035155 196.47400390625 L 125.97000061035156 196.47400390625 L 125.97000061035156 201.35400390625 L 127.37000061035157 201.35400390625 Q 130.01000061035157 201.35400390625 130.01000061035157 203.35400390625 Q 130.01000061035157 205.35400390625 127.37000061035157 205.35400390625 L 121.37000061035157 205.35400390625 Q 118.73000061035157 205.35400390625 118.73000061035157 203.35400390625 Q 118.73000061035157 201.35400390625 121.37000061035157 201.35400390625 L 121.97000061035156 201.35400390625 L 121.97000061035156 186.03400390625 L 121.37000061035157 186.03400390625 Q 118.73000061035157 186.03400390625 118.73000061035157 184.03400390625 Q 118.73000061035157 182.87400390625 119.41000061035156 182.45400390625 Q 120.09000061035157 182.03400390625 121.37000061035157 182.03400390625 L 130.29000061035157 182.03400390625 Q 134.17000061035156 182.03400390625 136.63000061035157 184.01400390625 Q 139.09000061035155 185.99400390625 139.09000061035155 189.15400390625 Q 139.09000061035155 192.83400390625 134.77000061035156 195.19400390625 Q 137.37000061035155 197.47400390625 139.81000061035155 201.35400390625 L 140.33000061035156 201.35400390625 Z M 125.97000061035156 192.47400390625 L 129.01000061035157 192.47400390625 Q 131.53000061035155 192.47400390625 133.19000061035158 191.49400390625 Q 134.85000061035157 190.51400390625 134.85000061035157 189.03400390625 Q 134.85000061035157 187.75400390625 133.61000061035156 186.89400390625 Q 132.37000061035155 186.03400390625 130.45000061035157 186.03400390625 L 125.97000061035156 186.03400390625 Z" transform="matrix(1, 0, 0, 1, 0, 0)" style="fill: rgb(255, 255, 255); white-space: pre;"/>
    </g>
  </g>
</svg>